# xmcd
#
# Track frame offsets:
#	150
#	13177
#	29165
#	43037
#	57875
#	75685
#	103267
#	123487
#	136662
#	152870
#	169970
#	180409
#
# Disc length: 2568 seconds
#
# Revision: 1
# Processed by: cddbd v1.5.1PL0 Copyright (c) Steve Scherf et al.
# Submitted via: audiograbber 1.83.01
#
DISCID=a10a060c
DTITLE=GUITARRA SERTANEJA - AS PREFERIDAS
DYEAR=1900
DGENRE=
TTITLE0=OS VERDES CAMPOS DA MINHA TERRA
TTITLE1=TERRA TOMBADA
TTITLE2=FIO DE CABELO
TTITLE3=SAUDADE DA MINHA TERRA
TTITLE4=O VAI E VEM DO CARREIRO
TTITLE5=POUT POURRIT
TTITLE6=FLOR DO CAFEZAL-COLCHA DE RETALHOS
TTITLE7=PINGA NE MIM
TTITLE8=DEBAIXO DO CARACÓIS
TTITLE9=OS 3 BOIADEIROS
TTITLE10=CANA VERDE
TTITLE11=COLCHA DE RETALHOS
EXTD=
EXTT0=
EXTT1=
EXTT2=
EXTT3=
EXTT4=
EXTT5=
EXTT6=
EXTT7=
EXTT8=
EXTT9=
EXTT10=
EXTT11=
PLAYORDER=
